<?xml version="1.0" encoding="UTF-8" standalone="no"?>
<!DOCTYPE svg PUBLIC "-//W3C//DTD SVG 1.1//EN"
"http://www.w3.org/Graphics/SVG/1.1/DTD/svg11.dtd">
<svg version="1.1" xmlns="http://www.w3.org/2000/svg" xmlns:xlink="http://www.w3.org/1999/xlink">
<defs>
<style type="text/css"><![CDATA[
.g4_1{
fill: none;
stroke: #231F20;
stroke-width: 1;
stroke-linecap: butt;
stroke-linejoin: miter;
}
.g2_1{
fill: #C6C8CA;
}
.g1_1{
fill: #DCDDDE;
}
.g7_1{
fill: none;
stroke: #2E3092;
stroke-width: 1;
stroke-linecap: butt;
stroke-linejoin: miter;
}
.g5_1{
fill: #FFFFFF;
}
.g6_1{
fill: none;
stroke: #231F20;
stroke-width: 1;
stroke-linecap: butt;
stroke-linejoin: round;
}
.g3_1{
fill: none;
stroke: #231F20;
stroke-width: 1;
stroke-linecap: butt;
stroke-linejoin: miter;
stroke-miterlimit: 1000;
}
.g8_1{
fill: none;
stroke: #000000;
stroke-width: 2;
stroke-linecap: butt;
stroke-linejoin: miter;
}
]]></style>
</defs>
<path d="M34,1125l867,0l0,-14l-867,0l0,14Z" class="g1_1" />
<path d="M34,750l867,0l0,-15L34,735l0,15Z" class="g1_1" />
<path d="M33,389l869,0l0,-18L33,371l0,18Z" class="g1_1" />
<path d="M34,342l869,0l0,-15L34,327l0,15Z" class="g1_1" />
<path d="M34,298l868,0l0,-29L34,269l0,29Z" class="g1_1" />
<path d="M34,208l363,0l0,-30L34,178l0,30Z" class="g2_1" />
<path d="M34,222l869,0l0,-15L34,207l0,15Z" class="g1_1" />
<path d="M34.5,179.5l867,0l0,1010l-867,0l0,-1010Z" class="g3_1" />
<path d="M34.5,207.5l868,0" class="g4_1" />
<image x="35" y="-6" width="237" height="69" xlink:href="img/1.png" />
<path d="M87,18l118,0L205,0L87,0l0,18Z" class="g5_1" />
<path d="M396.5,178.5l0,29" class="g4_1" />
<path d="M671.5,178.5l0,29" class="g4_1" />
<path d="M34.5,221.5l866,0" class="g4_1" />
<path d="M34.5,327.5l866,0" class="g4_1" />
<path d="M510.5,221.5l0,48" class="g4_1" />
<path d="M624.5,251.4c0,-2.3,0.8,-4.2,2.4,-5.8c1.6,-1.7,3.5,-2.5,5.8,-2.5c2.3,0,4.3,0.8,5.9,2.5c1.6,1.6,2.4,3.5,2.4,5.8c0,2.3,-0.8,4.2,-2.4,5.8c-1.6,1.7,-3.6,2.5,-5.9,2.5c-2.3,0,-4.2,-0.8,-5.8,-2.5c-1.6,-1.6,-2.4,-3.5,-2.4,-5.8Z" class="g6_1" />
<path d="M34.5,269.5l866,0" class="g4_1" />
<path d="M35.5,341.5l865,0" class="g4_1" />
<path d="M34.5,390.5l868,0" class="g4_1" />
<path d="M34.5,371.5l866,0" class="g4_1" />
<path d="M34.5,750.5l868,0" class="g4_1" />
<path d="M440.5,814.5l0,31" class="g4_1" />
<path d="M34.5,779.5l866,0" class="g4_1" />
<path d="M34.5,814.5l866,0" class="g4_1" />
<path d="M469.5,845.5l0,33" class="g4_1" />
<path d="M34.5,910.5l868,0" class="g4_1" />
<path d="M705.5,845.5l0,33" class="g4_1" />
<path d="M34.5,845.5l866,0" class="g4_1" />
<path d="M34.5,735.5l866,0" class="g4_1" />
<path d="M34.5,1110.5l867,0" class="g4_1" />
<path d="M467.5,1051.5l0,59" class="g4_1" />
<path d="M34.5,1125.5l866,0" class="g4_1" />
<path d="M445.5,1110.5l0,79" class="g4_1" />
<path d="M35,1207l867,0l0,-17l-867,0l0,17Z" class="g1_1" />
<path d="M55.4,802.3c0,-2.3,0.8,-4.2,2.4,-5.8c1.6,-1.6,3.5,-2.5,5.8,-2.5c2.3,0,4.3,0.9,5.9,2.5c1.6,1.6,2.4,3.5,2.4,5.8c0,2.3,-0.8,4.2,-2.4,5.9c-1.6,1.6,-3.6,2.4,-5.9,2.4c-2.3,0,-4.2,-0.8,-5.8,-2.4c-1.6,-1.7,-2.4,-3.6,-2.4,-5.9Z" class="g6_1" />
<path d="M157.7,802.3c0,-2.3,0.8,-4.2,2.4,-5.8c1.7,-1.6,3.6,-2.5,5.9,-2.5c2.3,0,4.2,0.9,5.8,2.5c1.7,1.6,2.5,3.5,2.5,5.8c0,2.3,-0.8,4.2,-2.5,5.9c-1.6,1.6,-3.5,2.4,-5.8,2.4c-2.3,0,-4.2,-0.8,-5.9,-2.4c-1.6,-1.7,-2.4,-3.6,-2.4,-5.9Z" class="g6_1" />
<path d="M264.4,802.3c0,-2.3,0.8,-4.2,2.4,-5.8c1.6,-1.6,3.5,-2.5,5.8,-2.5c2.3,0,4.3,0.9,5.9,2.5c1.6,1.6,2.4,3.5,2.4,5.8c0,2.3,-0.8,4.2,-2.4,5.9c-1.6,1.6,-3.6,2.4,-5.9,2.4c-2.3,0,-4.2,-0.8,-5.8,-2.4c-1.6,-1.7,-2.4,-3.6,-2.4,-5.9Z" class="g6_1" />
<path d="M382.1,802.3c0,-2.3,0.8,-4.2,2.4,-5.8c1.6,-1.6,3.6,-2.5,5.8,-2.5c2.3,0,4.3,0.9,5.9,2.5c1.6,1.6,2.4,3.5,2.4,5.8c0,2.3,-0.8,4.2,-2.4,5.9c-1.6,1.6,-3.6,2.4,-5.9,2.4c-2.2,0,-4.2,-0.8,-5.8,-2.4c-1.6,-1.7,-2.4,-3.6,-2.4,-5.9Z" class="g6_1" />
<path d="M516.4,801.5c0,-2.2,0.8,-4.2,2.4,-5.8c1.6,-1.6,3.6,-2.4,5.8,-2.4c2.3,0,4.3,0.8,5.9,2.4c1.6,1.6,2.4,3.6,2.4,5.8c0,2.3,-0.8,4.3,-2.4,5.9c-1.6,1.6,-3.6,2.4,-5.9,2.4c-2.2,0,-4.2,-0.8,-5.8,-2.4c-1.6,-1.6,-2.4,-3.6,-2.4,-5.9Z" class="g6_1" />
<path d="M546.5,844.5l0,34" class="g4_1" />
<path d="M33.5,298.5l867,0" class="g4_1" />
<path d="M445.5,297.5l0,30" class="g4_1" />
<path d="M34.5,878.5l866,0" class="g4_1" />
<path d="M822.4,250.9c0,-2.2,0.8,-4.2,2.4,-5.8c1.6,-1.6,3.6,-2.4,5.9,-2.4c2.2,0,4.2,0.8,5.8,2.4c1.6,1.6,2.4,3.6,2.4,5.8c0,2.3,-0.8,4.3,-2.4,5.9c-1.6,1.6,-3.6,2.4,-5.8,2.4c-2.3,0,-4.3,-0.8,-5.9,-2.4c-1.6,-1.6,-2.4,-3.6,-2.4,-5.9Z" class="g6_1" />
<path d="M34.5,426.5l868,0" class="g4_1" />
<path d="M34.5,454.3L900.9,455" class="g4_1" />
<path d="M34.5,507.5l866,0" class="g4_1" />
<path d="M34.5,580.5l866,0" class="g4_1" />
<path d="M34.5,616.5l866,0" class="g4_1" />
<path d="M33.5,642.5l867,0" class="g4_1" />
<path d="M34.5,667.5l866,0" class="g4_1" />
<path d="M748.5,388.5l0,347" class="g4_1" />
<path d="M34.5,704.5l867,0" class="g4_1" />
<path d="M33.5,482.5l867,0" class="g4_1" />
<path d="M34.5,1052.5l866,0" class="g4_1" />
<path d="M817.7,440.5c0,-2.2,0.8,-4.2,2.4,-5.8c1.6,-1.6,3.5,-2.4,5.8,-2.4c2.3,0,4.2,0.8,5.9,2.4c1.6,1.6,2.4,3.6,2.4,5.8c0,2.3,-0.8,4.3,-2.4,5.9c-1.7,1.6,-3.6,2.4,-5.9,2.4c-2.3,0,-4.2,-0.8,-5.8,-2.4c-1.6,-1.6,-2.4,-3.6,-2.4,-5.9Z" class="g6_1" />
<path d="M816.6,469.6c0,-2.3,0.8,-4.3,2.4,-5.9c1.6,-1.6,3.6,-2.4,5.8,-2.4c2.3,0,4.3,0.8,5.9,2.4c1.6,1.6,2.4,3.6,2.4,5.9c0,2.2,-0.8,4.2,-2.4,5.8c-1.6,1.6,-3.6,2.4,-5.9,2.4c-2.2,0,-4.2,-0.8,-5.8,-2.4c-1.6,-1.6,-2.4,-3.6,-2.4,-5.8Z" class="g6_1" />
<path d="M817.7,495.5c0,-2.2,0.8,-4.2,2.4,-5.8c1.6,-1.6,3.5,-2.4,5.8,-2.4c2.3,0,4.2,0.8,5.9,2.4c1.6,1.6,2.4,3.6,2.4,5.8c0,2.3,-0.8,4.3,-2.4,5.9c-1.7,1.6,-3.6,2.4,-5.9,2.4c-2.3,0,-4.2,-0.8,-5.8,-2.4c-1.6,-1.6,-2.4,-3.6,-2.4,-5.9Z" class="g6_1" />
<path d="M816.6,533c0,-2.3,0.8,-4.3,2.4,-5.9c1.6,-1.6,3.6,-2.4,5.8,-2.4c2.3,0,4.3,0.8,5.9,2.4c1.6,1.6,2.4,3.6,2.4,5.9c0,2.2,-0.8,4.2,-2.4,5.8c-1.6,1.6,-3.6,2.4,-5.9,2.4c-2.2,0,-4.2,-0.8,-5.8,-2.4c-1.6,-1.6,-2.4,-3.6,-2.4,-5.8Z" class="g6_1" />
<path d="M816.6,568.9c0,-2.3,0.8,-4.3,2.4,-5.9c1.6,-1.6,3.6,-2.4,5.8,-2.4c2.3,0,4.3,0.8,5.9,2.4c1.6,1.6,2.4,3.6,2.4,5.9c0,2.3,-0.8,4.2,-2.4,5.8c-1.6,1.6,-3.6,2.4,-5.9,2.4c-2.2,0,-4.2,-0.8,-5.8,-2.4c-1.6,-1.6,-2.4,-3.5,-2.4,-5.8Z" class="g6_1" />
<path d="M817.7,599.4c0,-2.3,0.8,-4.2,2.4,-5.8c1.6,-1.6,3.5,-2.4,5.8,-2.4c2.3,0,4.2,0.8,5.9,2.4c1.6,1.6,2.4,3.5,2.4,5.8c0,2.3,-0.8,4.3,-2.4,5.9c-1.7,1.6,-3.6,2.4,-5.9,2.4c-2.3,0,-4.2,-0.8,-5.8,-2.4c-1.6,-1.6,-2.4,-3.6,-2.4,-5.9Z" class="g6_1" />
<path d="M816.6,656c0,-2.3,0.8,-4.3,2.4,-5.9c1.6,-1.6,3.6,-2.4,5.8,-2.4c2.3,0,4.3,0.8,5.9,2.4c1.6,1.6,2.4,3.6,2.4,5.9c0,2.2,-0.8,4.2,-2.4,5.8c-1.6,1.6,-3.6,2.4,-5.9,2.4c-2.2,0,-4.2,-0.8,-5.8,-2.4c-1.6,-1.6,-2.4,-3.6,-2.4,-5.8Z" class="g6_1" />
<path d="M817.7,688c0,-2.2,0.8,-4.2,2.4,-5.8c1.6,-1.6,3.5,-2.4,5.8,-2.4c2.3,0,4.2,0.8,5.9,2.4c1.6,1.6,2.4,3.6,2.4,5.8c0,2.3,-0.8,4.3,-2.4,5.9c-1.7,1.6,-3.6,2.4,-5.9,2.4c-2.3,0,-4.2,-0.8,-5.8,-2.4c-1.6,-1.6,-2.4,-3.6,-2.4,-5.9Z" class="g6_1" />
<path d="M816.6,720.1c0,-2.3,0.8,-4.2,2.4,-5.8c1.6,-1.6,3.6,-2.4,5.8,-2.4c2.3,0,4.3,0.8,5.9,2.4c1.6,1.6,2.4,3.5,2.4,5.8c0,2.3,-0.8,4.2,-2.4,5.9c-1.6,1.6,-3.6,2.4,-5.9,2.4c-2.2,0,-4.2,-0.8,-5.8,-2.4c-1.6,-1.7,-2.4,-3.6,-2.4,-5.9Z" class="g6_1" />
<path d="M34.5,557.5l868,0" class="g4_1" />
<path d="M817.3,630.3c0,-2.3,0.8,-4.2,2.4,-5.9c1.6,-1.6,3.6,-2.4,5.8,-2.4c2.3,0,4.3,0.8,5.9,2.4c1.6,1.7,2.4,3.6,2.4,5.9c0,2.3,-0.8,4.2,-2.4,5.8c-1.6,1.6,-3.6,2.4,-5.9,2.4c-2.2,0,-4.2,-0.8,-5.8,-2.4c-1.6,-1.6,-2.4,-3.5,-2.4,-5.8Z" class="g6_1" />
<path d="M681.5,340.5l0,31" class="g4_1" />
<path d="M681.5,749.5l0,30" class="g4_1" />
<path d="M466.5,1032.5l-24,0" class="g7_1" />
<path d="M587.5,1032.5l-121,0" class="g7_1" />
<path d="M469.5,1175.5l282,0" class="g4_1" />
<path d="M56.5,1175.5l282,0" class="g4_1" />
<path d="M149,82L36,82" class="g8_1" />
<path d="M904.5,143.5l-186,0" class="g7_1" />
<path d="M471.5,155.5l-23,0" class="g7_1" />
<path d="M589.5,155.5l-118,0" class="g7_1" />
</svg>