<?xml version="1.0" encoding="UTF-8" standalone="no"?>
<!DOCTYPE svg PUBLIC "-//W3C//DTD SVG 1.1//EN"
"http://www.w3.org/Graphics/SVG/1.1/DTD/svg11.dtd">
<svg version="1.1" xmlns="http://www.w3.org/2000/svg" xmlns:xlink="http://www.w3.org/1999/xlink">
<defs>
<style type="text/css"><![CDATA[
.g7_1{
fill: none;
stroke: #000000;
stroke-width: 2;
stroke-linecap: square;
stroke-linejoin: miter;
stroke-miterlimit: 7;
}
.g8_1{
fill: none;
stroke: #535353;
stroke-width: 1;
stroke-linecap: butt;
stroke-linejoin: miter;
}
.g1_1{
fill: #003366;
}
.g6_1{
fill: #FFFFFF;
}
.g5_1{
fill: #808080;
}
.g2_1{
fill: none;
stroke: #000000;
stroke-width: 4;
stroke-linecap: square;
stroke-linejoin: miter;
stroke-opacity: 0.5;
}
.g3_1{
fill-opacity: 0.5;
}
.g9_1{
fill: none;
stroke: #000000;
stroke-width: 1;
stroke-linecap: butt;
stroke-linejoin: miter;
}
.g4_1{
fill: none;
stroke: #808080;
stroke-width: 4;
stroke-linecap: square;
stroke-linejoin: miter;
}
.g10_1{
fill: #2A2A2A;
}
]]></style>
</defs>
<path fill-rule="evenodd" d="M89,1094l756,0l0,-26l-756,0l0,26Z" class="g1_1" />
<path d="M108,147l739,0" class="g2_1" />
<path fill-rule="evenodd" d="M105,143c-2.5,0,-4.6,2,-4.6,4.6c0,2.4,2.1,4.6,4.6,4.6c2.6,0,4.5,-2.2,4.5,-4.6c0,-2.6,-1.9,-4.6,-4.5,-4.6Z" class="g3_1" />
<path d="M113,152l739,0" class="g4_1" />
<path fill-rule="evenodd" d="M109.5,147.6c-2.4,0,-4.5,2,-4.5,4.6c0,2.4,2.1,4.5,4.5,4.5c2.6,0,4.6,-2.1,4.6,-4.5c0,-2.6,-2,-4.6,-4.6,-4.6Z" class="g5_1" />
<path fill-rule="evenodd" d="M692,472l-16,0l0,-27l32,0l0,27l-16,0Z" class="g6_1" />
<path d="M692,472l-16,0l0,-27l32,0l0,27l-16,0Z" class="g7_1" />
<path fill-rule="evenodd" d="M694,511l-16,0l0,-28l31,0l0,28l-15,0Z" class="g6_1" />
<path d="M694,511l-16,0l0,-28l31,0l0,28l-15,0Z" class="g7_1" />
<path fill-rule="evenodd" d="M693,551l-16,0l0,-28l32,0l0,28l-16,0Z" class="g6_1" />
<path d="M693,551l-16,0l0,-28l32,0l0,28l-16,0Z" class="g7_1" />
<path fill-rule="evenodd" d="M580,473l-15,0l0,-28l31,0l0,28l-16,0Z" class="g6_1" />
<path d="M580,473l-15,0l0,-28l31,0l0,28l-16,0Z" class="g7_1" />
<path fill-rule="evenodd" d="M582,512l-16,0l0,-28l32,0l0,28l-16,0Z" class="g6_1" />
<path d="M582,512l-16,0l0,-28l32,0l0,28l-16,0Z" class="g7_1" />
<path fill-rule="evenodd" d="M581,551l-15,0l0,-28l31,0l0,28l-16,0Z" class="g6_1" />
<path d="M581,551l-15,0l0,-28l31,0l0,28l-16,0Z" class="g7_1" />
<path fill-rule="evenodd" d="M661,866l-16,0l0,-30l31,0l0,30l-15,0Z" class="g6_1" />
<path d="M661,866l-16,0l0,-30l31,0l0,30l-15,0Z" class="g7_1" />
<path fill-rule="evenodd" d="M735,866l-15,0l0,-30l31,0l0,30l-16,0Z" class="g6_1" />
<path d="M735,866l-15,0l0,-30l31,0l0,30l-16,0Z" class="g7_1" />
<path fill-rule="evenodd" d="M662,962l-16,0l0,-29l31,0l0,29l-15,0Z" class="g6_1" />
<path d="M662,962l-16,0l0,-29l31,0l0,29l-15,0Z" class="g7_1" />
<path fill-rule="evenodd" d="M735,962l-15,0l0,-29l31,0l0,29l-16,0Z" class="g6_1" />
<path d="M735,962l-15,0l0,-29l31,0l0,29l-16,0Z" class="g7_1" />
<path d="M284.5,134.5l586,0" class="g8_1" />
<path d="M284.5,138.5l589,0" class="g9_1" />
<path fill-rule="evenodd" d="M871.3,136l1.2,1.2l-588.3,0l0,-1.2l0,-1.1l586,0l1.1,1.1Z" class="g10_1" />
<path d="M869.5,134.5l0,-109" class="g8_1" />
<path d="M872.5,138.5l0,-113" class="g9_1" />
<path fill-rule="evenodd" d="M871.3,26l1.2,0l0,111.2L871.3,136l-1.1,-1.1L870.2,26l1.1,0Z" class="g10_1" />
<image x="72" y="26" width="204" height="108" xlink:href="img/1.png" />
<image x="277" y="25" width="597" height="109" xlink:href="img/2.png" />
<path d="M88.5,1069.5l758,0" class="g9_1" />
<path d="M90.5,1073.5l754,0" class="g8_1" />
<path fill-rule="evenodd" d="M845,1070.8l-0.6,1.2l-753.8,0L90,1070.8l-0.5,-1l756.1,0l-0.6,1Z" class="g10_1" />
<path fill-rule="evenodd" d="M276.4,1096.2l-1.1,1.2l-184.1,0L90,1096.2l1.2,-1.2l186.4,0l-1.2,1.2Z" class="g6_1" />
<path fill-rule="evenodd" d="M469.5,1096.2l-1.1,1.2l-190.8,0l-1.2,-1.2l-1.1,-1.2l195.4,0l-1.2,1.2Z" class="g6_1" />
<path fill-rule="evenodd" d="M660.3,1096.2l-1.1,1.2l-188.5,0l-1.2,-1.2l-1.1,-1.2l193.1,0l-1.2,1.2Z" class="g6_1" />
<path fill-rule="evenodd" d="M845,1096.2l-1.1,1.2l-182.4,0l-1.2,-1.2l-1.1,-1.2l184.7,0l1.1,1.2Z" class="g6_1" />
<path fill-rule="evenodd" d="M276.4,1112.5l1.2,1.3l-188.7,0l1.1,-1.3l1.2,-1.2l184.1,0l1.1,1.2Z" class="g6_1" />
<path fill-rule="evenodd" d="M469.5,1112.5l1.2,1.3l-195.4,0l1.1,-1.3l1.2,-1.2l190.8,0l1.1,1.2Z" class="g6_1" />
<path fill-rule="evenodd" d="M660.3,1112.5l1.2,1.3l-193.1,0l1.1,-1.3l1.2,-1.2l188.5,0l1.1,1.2Z" class="g6_1" />
<path fill-rule="evenodd" d="M845,1112.5l1.2,1.3l-187,0l1.1,-1.3l1.2,-1.2l182.4,0l1.1,1.2Z" class="g6_1" />
<path fill-rule="evenodd" d="M90,1070.8l1.2,2.3l0,21.9l-1.2,1.2l-1.1,1.2l0,-28.9l1.1,2.3Z" class="g6_1" />
<path fill-rule="evenodd" d="M90,1096.2l1.2,1.2l0,13.9l-1.2,1.2l-1.1,1.3l0,-18.8l1.1,1.2Z" class="g6_1" />
<path fill-rule="evenodd" d="M276.4,1096.2l1.2,1.2l0,13.9l-1.2,1.2l-1.1,-1.2l0,-13.9l1.1,-1.2Z" class="g6_1" />
<path fill-rule="evenodd" d="M469.5,1096.2l1.2,1.2l0,13.9l-1.2,1.2l-1.1,-1.2l0,-13.9l1.1,-1.2Z" class="g6_1" />
<path fill-rule="evenodd" d="M660.3,1096.2l1.2,1.2l0,13.9l-1.2,1.2l-1.1,-1.2l0,-13.9l1.1,-1.2Z" class="g6_1" />
<path fill-rule="evenodd" d="M845,1070.8l1.2,-2.3l0,28.9l-1.2,-1.2l-1.1,-1.2l0,-21.9l1.1,-2.3Z" class="g6_1" />
<path fill-rule="evenodd" d="M845,1096.2l1.2,-1.2l0,18.8l-1.2,-1.3l-1.1,-1.2l0,-13.9l1.1,-1.2Z" class="g6_1" />
<image x="22.007" y="11071.409" width="202" height="226.999" xlink:href="img/3.png" transform="scale(3.816 , 0.096)" />
</svg>